<mxfile host="app.diagrams.net" modified="2020-07-12T09:57:18.732Z" agent="Mozilla/5.0 (Macintosh; Intel Mac OS X 10_13_6) AppleWebKit/537.36 (KHTML, like Gecko) Chrome/80.0.3987.149 Safari/537.36" etag="5l51BMZ1ks-srv3-fIER" version="12.9.0" type="github">
  <diagram id="DxyX8KjCjXub0EamE06P" name="Page-1">
    <mxGraphModel dx="946" dy="614" grid="0" gridSize="10" guides="1" tooltips="1" connect="1" arrows="1" fold="1" page="0" pageScale="1" pageWidth="827" pageHeight="1169" math="0" shadow="0">
      <root>
        <mxCell id="0" />
        <mxCell id="1" parent="0" />
        <mxCell id="3KhBB-UzeVjgN0t8tx5o-3" value="" style="edgeStyle=orthogonalEdgeStyle;rounded=0;orthogonalLoop=1;jettySize=auto;html=1;" edge="1" parent="1" source="3KhBB-UzeVjgN0t8tx5o-1" target="3KhBB-UzeVjgN0t8tx5o-2">
          <mxGeometry relative="1" as="geometry" />
        </mxCell>
        <mxCell id="3KhBB-UzeVjgN0t8tx5o-1" value="Actor" style="shape=umlActor;verticalLabelPosition=bottom;labelBackgroundColor=#ffffff;verticalAlign=top;html=1;outlineConnect=0;" vertex="1" parent="1">
          <mxGeometry x="70" y="150" width="30" height="60" as="geometry" />
        </mxCell>
        <mxCell id="3KhBB-UzeVjgN0t8tx5o-5" value="" style="edgeStyle=orthogonalEdgeStyle;rounded=0;orthogonalLoop=1;jettySize=auto;html=1;" edge="1" parent="1" source="3KhBB-UzeVjgN0t8tx5o-2" target="3KhBB-UzeVjgN0t8tx5o-4">
          <mxGeometry relative="1" as="geometry" />
        </mxCell>
        <mxCell id="3KhBB-UzeVjgN0t8tx5o-2" value="声明pod使用pvc" style="rounded=0;whiteSpace=wrap;html=1;" vertex="1" parent="1">
          <mxGeometry x="160" y="150" width="120" height="60" as="geometry" />
        </mxCell>
        <mxCell id="3KhBB-UzeVjgN0t8tx5o-7" value="" style="edgeStyle=orthogonalEdgeStyle;rounded=0;orthogonalLoop=1;jettySize=auto;html=1;" edge="1" parent="1" source="3KhBB-UzeVjgN0t8tx5o-4" target="3KhBB-UzeVjgN0t8tx5o-6">
          <mxGeometry relative="1" as="geometry" />
        </mxCell>
        <mxCell id="3KhBB-UzeVjgN0t8tx5o-4" value="VolumeZone:volume是否满足区域要求" style="rounded=0;whiteSpace=wrap;html=1;" vertex="1" parent="1">
          <mxGeometry x="360" y="150" width="120" height="60" as="geometry" />
        </mxCell>
        <mxCell id="3KhBB-UzeVjgN0t8tx5o-9" value="" style="edgeStyle=orthogonalEdgeStyle;rounded=0;orthogonalLoop=1;jettySize=auto;html=1;" edge="1" parent="1" source="3KhBB-UzeVjgN0t8tx5o-6" target="3KhBB-UzeVjgN0t8tx5o-8">
          <mxGeometry relative="1" as="geometry" />
        </mxCell>
        <mxCell id="3KhBB-UzeVjgN0t8tx5o-6" value="NoDiskConlict: 检查是够已经挂载到节点上" style="rounded=0;whiteSpace=wrap;html=1;" vertex="1" parent="1">
          <mxGeometry x="560" y="150" width="120" height="60" as="geometry" />
        </mxCell>
        <mxCell id="3KhBB-UzeVjgN0t8tx5o-11" value="" style="edgeStyle=orthogonalEdgeStyle;rounded=0;orthogonalLoop=1;jettySize=auto;html=1;" edge="1" parent="1" source="3KhBB-UzeVjgN0t8tx5o-8" target="3KhBB-UzeVjgN0t8tx5o-10">
          <mxGeometry relative="1" as="geometry" />
        </mxCell>
        <mxCell id="3KhBB-UzeVjgN0t8tx5o-8" value="NoDiskConlict: 检查是够已经挂载到节点上" style="rounded=0;whiteSpace=wrap;html=1;" vertex="1" parent="1">
          <mxGeometry x="560" y="290" width="120" height="60" as="geometry" />
        </mxCell>
        <mxCell id="3KhBB-UzeVjgN0t8tx5o-13" value="" style="edgeStyle=orthogonalEdgeStyle;rounded=0;orthogonalLoop=1;jettySize=auto;html=1;" edge="1" parent="1" source="3KhBB-UzeVjgN0t8tx5o-10" target="3KhBB-UzeVjgN0t8tx5o-12">
          <mxGeometry relative="1" as="geometry" />
        </mxCell>
        <mxCell id="3KhBB-UzeVjgN0t8tx5o-10" value="NodeVolumeLimits：节点上挂载的volume小于阈值会被选中" style="rounded=0;whiteSpace=wrap;html=1;" vertex="1" parent="1">
          <mxGeometry x="360" y="290" width="120" height="60" as="geometry" />
        </mxCell>
        <mxCell id="3KhBB-UzeVjgN0t8tx5o-15" value="" style="edgeStyle=orthogonalEdgeStyle;rounded=0;orthogonalLoop=1;jettySize=auto;html=1;" edge="1" parent="1" source="3KhBB-UzeVjgN0t8tx5o-12">
          <mxGeometry relative="1" as="geometry">
            <mxPoint x="220" y="430" as="targetPoint" />
          </mxGeometry>
        </mxCell>
        <mxCell id="3KhBB-UzeVjgN0t8tx5o-12" value="VolumeBinding：检查pv的nodeAffinity" style="rounded=0;whiteSpace=wrap;html=1;" vertex="1" parent="1">
          <mxGeometry x="160" y="290" width="120" height="60" as="geometry" />
        </mxCell>
        <mxCell id="3KhBB-UzeVjgN0t8tx5o-16" value="scheduler阶段结束" style="rounded=1;whiteSpace=wrap;html=1;" vertex="1" parent="1">
          <mxGeometry x="160" y="430" width="120" height="60" as="geometry" />
        </mxCell>
      </root>
    </mxGraphModel>
  </diagram>
</mxfile>
